<svg version="1.1" width="212" height="81" viewBox="-1 -1 212 81" xmlns="http://www.w3.org/2000/svg" xmlns:xlink="http://www.w3.org/1999/xlink">
  <!-- Exported by Scratch - http://scratch.mit.edu/ -->
  <g id="layer1">
    <path id="path2874" fill="#DE0101" stroke="none" d="M 143.750 0 L 143.750 79.250 L 159.906 79.250 L 159.906 26.813 L 190.125 79.250 L 210.375 79.250 L 210.375 0 L 192.844 0 L 192.844 53.625 L 162.719 0 L 143.750 0 Z M 131.469 0.125 L 89.063 0.219 L 82.125 42.344 L 94.156 44.656 C 95.995 41.636 100.033 37.584 107.094 37.656 C 114.155 37.729 121.102 42.445 121.406 51.344 C 121.693 59.748 115.356 66.731 107.063 66.688 C 98.769 66.644 93.313 58.094 93.313 58.094 L 78.938 58.094 C 78.927 67.887 91.726 79.250 107.625 79.250 C 123.525 79.250 135.250 68.213 135.250 52.250 C 135.250 36.287 126.044 25.540 112.656 25.406 C 99.269 25.273 97.156 28.938 97.156 28.938 L 99.719 13.844 L 131.344 13.844 L 131.469 0.125 Z M 37.844 0.219 C 16.551 0.219 -0.088 16.571 0 39.719 C 0.083 61.540 16.551 79.250 37.844 79.250 C 54.154 79.250 68.117 68.854 73.750 54.188 L 58.063 54.188 C 55.354 57.452 49.039 66.151 38.719 66.094 C 23.372 66.009 16.559 53.351 16.406 39.719 C 16.254 26.086 25.062 13.877 38.719 13.844 C 52.384 13.811 55.434 21.519 58.063 25.406 L 73.781 25.375 C 68.178 10.646 54.198 0.219 37.844 0.219 Z "/>
  </g>
</svg>