<?xml version="1.0" encoding="utf-8"?>
<!-- Generator: Adobe Illustrator 24.2.3, SVG Export Plug-In . SVG Version: 6.00 Build 0)  -->
<svg version="1.1" id="Layer_1" xmlns="http://www.w3.org/2000/svg" xmlns:xlink="http://www.w3.org/1999/xlink" x="0px" y="0px"
	 viewBox="0 0 116 36" style="enable-background:new 0 0 116 36;" xml:space="preserve">
<style type="text/css">
	.st0{fill-rule:evenodd;clip-rule:evenodd;fill:#FFFFFF;}
	.st1{fill-rule:evenodd;clip-rule:evenodd;fill:#D42027;}
</style>
<path class="st0" d="M116,32l-0.2,0c-1.2,0-2.4,0-3.7,0l-2.8,0l-11-19l0,19l-5.6,0V3.8h6.6l11,19.4c0-6.4,0-12.8,0-19.2V3.8h5.6
	L116,32z"/>
<path class="st0" d="M79.8,32.2L79.8,32.2c-4,0-6.5-2.2-7.9-3.8c-1.2-1.4-2.4-3.7-2.4-5.8v-0.2l1.3,0c1.2,0,2.6,0,3.9,0l0.2,0l0,0.1
	c0.1,0.8,1,4.3,5.2,4.2c3.4-0.4,4.4-3.3,4.5-4.5l0,0c0.2-1.2-0.5-4.3-3.7-5.2c-0.4-0.1-0.8-0.1-1.2-0.1c-1.2,0-2.7,0.6-3.5,1.6
	l-0.1,0.1l-0.1,0c-0.7-0.2-1.6-0.4-2.5-0.7c-0.8-0.2-1.7-0.5-2.4-0.6l-0.2,0l0-0.2c0.4-2.2,0.7-4.1,1-6c0.4-2.4,0.8-4.7,1.2-7.4
	l0-0.1H89v4.7H77.7c-0.3,1.7-0.6,3.2-0.9,4.9c1.2-0.6,2.5-1,5.2-0.9c3.6,0.2,7.7,3.3,8.2,8.6c0.3,2.7-0.6,5.4-2.4,7.5
	C85.9,30.7,83,32.2,79.8,32.2L79.8,32.2z"/>
<path class="st0" d="M54.7,32.2c-0.1,0-0.2,0-0.4,0c-7.2-0.2-12.8-6.1-13-13.6c-0.1-4.1,1.4-8.4,4.2-11.3c2.5-2.6,5.6-3.9,9-3.9
	c7.5,0.1,11.6,5.7,12.4,9.3l0.1,0.2h-6l0-0.1c0,0-0.1-0.1-0.2-0.3c-1.4-2.6-3.5-4-6.2-4h0c-4.9,0.1-7.8,4.7-7.8,9.2
	c0,2.3,0.7,4.6,2.1,6.4c1.3,1.6,3.4,2.7,5.3,2.7l0.1,0c4.1-0.1,5.7-2.2,6.6-4.1l0.1-0.3h6L67.1,23c-0.4,1.6-1.6,4-3.9,6
	C61.5,30.4,58.7,32.2,54.7,32.2z"/>
<path class="st1" d="M6.2,29.7h23.2V6.3H6.2V29.7z M0,36h35.7V0H0V36z"/>
</svg>
